<?xml version="1.0" standalone="no"?>
<!DOCTYPE svg PUBLIC "-//W3C//DTD SVG 20010904//EN"
 "http://www.w3.org/TR/2001/REC-SVG-20010904/DTD/svg10.dtd">
<svg version="1.0" xmlns="http://www.w3.org/2000/svg"
 width="32.000000pt" height="32.000000pt" viewBox="0 0 32.000000 32.000000"
 preserveAspectRatio="xMidYMid meet">

<g transform="translate(0.000000,32.000000) scale(0.100000,-0.100000)"
fill="#000000" stroke="none">
<path d="M40 160 l0 -110 30 0 c29 0 30 2 30 45 0 38 3 45 19 45 35 0 52 -12
72 -51 17 -34 24 -39 55 -39 l35 0 -25 42 c-14 23 -33 46 -43 50 -10 3 -12 7
-5 7 21 1 52 40 52 64 0 45 -28 57 -128 57 l-92 0 0 -110z m144 74 c22 -9 20
-51 -3 -64 -11 -5 -36 -10 -55 -10 -35 0 -36 1 -36 40 0 40 0 40 39 40 22 0
46 -3 55 -6z"/>
</g>
</svg>
